<?xml version="1.0" encoding="utf-8"?>
<!-- Generator: Adobe Illustrator 21.1.0, SVG Export Plug-In . SVG Version: 6.00 Build 0)  -->
<svg version="1.1" id="Layer_1" xmlns="http://www.w3.org/2000/svg" xmlns:xlink="http://www.w3.org/1999/xlink" x="0px" y="0px"
	 viewBox="0 0 100 100" style="enable-background:new 0 0 100 100;" xml:space="preserve">
<style type="text/css">
	.st0{fill:#9D9C9C;}
</style>
<rect x="39.1" y="79.6" class="st0" width="20.7" height="7.5"/>
<rect x="20.9" y="66.7" class="st0" width="58" height="9.5"/>
<rect x="16.2" y="11.2" class="st0" width="68.1" height="57.6"/>
<rect x="32.6" y="75.2" class="st0" width="35.2" height="5.6"/>
<title>BS-Danger-Rounded-Badge</title>
<path d="M82.7,13c0.1,0,0.1,0.1,0.1,0.1v53.1c0,0,0,0.1-0.1,0.1L50.1,87c0,0-0.1,0-0.1,0L17.3,66.3c0,0-0.1-0.1-0.1-0.1V13.1
	c0-0.1,0.1-0.1,0.1-0.1H82.7 M82.7,5H17.3c-4.5,0-8.1,3.6-8.1,8.1l0,0v53.1c0,2.8,1.4,5.4,3.8,6.9l32.7,20.7c2.7,1.7,6,1.7,8.7,0
	L87,73.1c2.4-1.5,3.8-4.1,3.8-6.9V13.1C90.8,8.6,87.2,5,82.7,5z"/>
<path d="M62,38.5l-9.3,11.2H62L38,72l8.9-16.7H38l8.9-10.9H38L62,22l-9,16.5H62z"/>
</svg>
