<?xml version="1.0" encoding="utf-8"?>
<!-- Generator: Adobe Illustrator 21.1.0, SVG Export Plug-In . SVG Version: 6.00 Build 0)  -->
<svg version="1.1" id="Layer_1" xmlns="http://www.w3.org/2000/svg" xmlns:xlink="http://www.w3.org/1999/xlink" x="0px" y="0px"
	 viewBox="0 0 100 100" style="enable-background:new 0 0 100 100;" xml:space="preserve">
<style type="text/css">
	.st0{fill:#DF3E49;}
</style>
<rect x="16.2" y="11.3" class="st0" width="67.4" height="57.7"/>
<rect x="21.7" y="67.8" class="st0" width="56.3" height="9.3"/>
<rect x="34.3" y="75.9" class="st0" width="32" height="6.8"/>
<rect x="42.2" y="80.8" class="st0" width="15.6" height="7.4"/>
<title>BS-X-Rounded-Badge</title>
<path d="M82.7,13c0.1,0,0.1,0.1,0.1,0.1v53.1c0,0,0,0.1-0.1,0.1L50.1,87c0,0-0.1,0-0.1,0L17.3,66.3c0,0-0.1-0.1-0.1-0.1V13.1
	c0-0.1,0.1-0.1,0.1-0.1H82.7 M82.7,5H17.3c-4.5,0-8.1,3.6-8.1,8.1l0,0v53.1c0,2.8,1.4,5.4,3.8,6.9l32.7,20.7c2.7,1.7,6,1.7,8.7,0
	L87,73.1c2.4-1.5,3.8-4.1,3.8-6.9V13.1C90.8,8.6,87.2,5,82.7,5z"/>
<polygon points="37.3,67 30,59.8 42.7,47 30,34.3 37.3,27 50,39.8 62.7,27 70,34.3 57.3,47 70,59.8 62.7,67 50,54.3 "/>
</svg>
