<?xml version="1.0" encoding="utf-8"?>
<!-- Generator: Adobe Illustrator 21.1.0, SVG Export Plug-In . SVG Version: 6.00 Build 0)  -->
<svg version="1.1" id="Layer_1" xmlns="http://www.w3.org/2000/svg" xmlns:xlink="http://www.w3.org/1999/xlink" x="0px" y="0px"
	 viewBox="0 0 100 100" style="enable-background:new 0 0 100 100;" xml:space="preserve">
<style type="text/css">
	.st0{fill:none;}
	.st1{font-family:'KumarOne-Regular';}
	.st2{font-size:60px;}
</style>
<title>BS-Danger-Rounded-Badge</title>
<path d="M82.7,13c0.1,0,0.1,0.1,0.1,0.1v53.1c0,0,0,0.1-0.1,0.1L50.1,87c0,0-0.1,0-0.1,0L17.3,66.3c0,0-0.1-0.1-0.1-0.1V13.1
	c0-0.1,0.1-0.1,0.1-0.1H82.7 M82.7,5H17.3c-4.5,0-8.1,3.6-8.1,8.1l0,0v53.1c0,2.8,1.4,5.4,3.8,6.9l32.7,20.7c2.7,1.7,6,1.7,8.7,0
	L87,73.1c2.4-1.5,3.8-4.1,3.8-6.9V13.1C90.8,8.6,87.2,5,82.7,5z"/>
<rect x="17.3" y="17.1" class="st0" width="65.2" height="63.8"/>
<text transform="matrix(1 0 0 1 26.521 69.9247)" class="st1 st2">T</text>
</svg>
