<svg xmlns="http://www.w3.org/2000/svg" viewBox="0 0 100 100" x="0px" y="0px"><title>BS-Danger-Rounded-Badge</title><path d="M82.67,13a.13.13,0,0,1,.13.13V66.2a.13.13,0,0,1-.06.11L50.07,87a.13.13,0,0,1-.14,0L17.26,66.32a.13.13,0,0,1-.06-.11V13.13a.13.13,0,0,1,.13-.13H82.67m0-8H17.33a8.13,8.13,0,0,0-8.13,8.13V66.2A8.13,8.13,0,0,0,13,73.08L45.65,93.74a8.13,8.13,0,0,0,8.69,0L87,73.08a8.13,8.13,0,0,0,3.79-6.87V13.13A8.13,8.13,0,0,0,82.67,5Z"></path><path d="M62,38.5,52.74,49.69H62L38,72,46.9,55.26H38l8.92-10.9H38L62,22,53,38.5Z"></path></svg>