<svg xmlns="http://www.w3.org/2000/svg" viewBox="0 0 100 100" x="0px" y="0px"><title>BS-Tick-Rounded-Badge</title><path d="M82.67,13a.13.13,0,0,1,.13.13V66.2a.13.13,0,0,1-.06.11L50.07,87a.13.13,0,0,1-.14,0L17.26,66.32a.13.13,0,0,1-.06-.11V13.13a.13.13,0,0,1,.13-.13H82.67m0-8H17.33a8.13,8.13,0,0,0-8.13,8.13V66.2A8.13,8.13,0,0,0,13,73.08L45.65,93.74a8.13,8.13,0,0,0,8.69,0L87,73.08a8.13,8.13,0,0,0,3.79-6.87V13.13A8.13,8.13,0,0,0,82.67,5Z"></path><g><polygon points="75 35.01 44.03 65.97 25 46.94 31.92 40.02 44.03 52.13 68.08 28.09 75 35.01"></polygon><polygon points="75 35.01 44.03 65.97 25 46.94 31.92 40.02 44.03 52.13 68.08 28.09 75 35.01"></polygon></g></svg>