<?xml version="1.0" encoding="utf-8"?>
<!-- Generator: Adobe Illustrator 21.1.0, SVG Export Plug-In . SVG Version: 6.00 Build 0)  -->
<svg version="1.1" id="Layer_1" xmlns="http://www.w3.org/2000/svg" xmlns:xlink="http://www.w3.org/1999/xlink" x="0px" y="0px"
	 viewBox="0 0 100 100" style="enable-background:new 0 0 100 100;" xml:space="preserve">
<style type="text/css">
	.st0{fill:#65F28C;}
</style>
<rect x="39.6" y="79.4" class="st0" width="20.9" height="7.9"/>
<rect x="29.7" y="72.9" class="st0" width="40.1" height="7.9"/>
<rect x="20.3" y="67" class="st0" width="59" height="7.4"/>
<rect x="15.9" y="11.5" class="st0" width="67.6" height="57.5"/>
<title>BS-Tick-Rounded-Badge</title>
<path d="M82.7,13c0.1,0,0.1,0.1,0.1,0.1v53.1c0,0,0,0.1-0.1,0.1L50.1,87c0,0-0.1,0-0.1,0L17.3,66.3c0,0-0.1-0.1-0.1-0.1V13.1
	c0-0.1,0.1-0.1,0.1-0.1H82.7 M82.7,5H17.3c-4.5,0-8.1,3.6-8.1,8.1l0,0v53.1c0,2.8,1.4,5.4,3.8,6.9l32.7,20.7c2.7,1.7,6,1.7,8.7,0
	L87,73.1c2.4-1.5,3.8-4.1,3.8-6.9V13.1C90.8,8.6,87.2,5,82.7,5z"/>
<g>
	<polygon points="75,35 44,66 25,46.9 31.9,40 44,52.1 68.1,28.1 	"/>
	<polygon points="75,35 44,66 25,46.9 31.9,40 44,52.1 68.1,28.1 	"/>
</g>
</svg>
